<svg xmlns="http://www.w3.org/2000/svg" xmlns:xlink="http://www.w3.org/1999/xlink" width="16" height="16" viewBox="0 0 16 16"><defs><clipPath id="clip-path" transform="translate(0)"><rect width="16" height="16" fill="none"/></clipPath></defs><g id="Layer_2" data-name="Layer 2"><g id="Layer_2-2" data-name="Layer 2"><g id="extlink"><g clip-path="url(#clip-path)"><g clip-path="url(#clip-path)"><path d="M13.49,10h-1a.51.51,0,0,0-.51.51V14H2V4H6.49A.51.51,0,0,0,7,3.49v-1A.51.51,0,0,0,6.49,2h-5A1.52,1.52,0,0,0,0,3.52v11A1.5,1.5,0,0,0,1.5,16h11A1.5,1.5,0,0,0,14,14.5v-4a.51.51,0,0,0-.51-.51M15.24,0H11.18a.76.76,0,0,0-.54,1.3l1.13,1.13L4,10.17a.78.78,0,0,0,0,1.08H4l.72.72a.78.78,0,0,0,1.08,0h0l7.73-7.74L14.7,5.36A.76.76,0,0,0,16,4.82V.76A.76.76,0,0,0,15.24,0" transform="translate(0)" fill="#999"/></g></g></g></g></g></svg>