<svg xmlns="http://www.w3.org/2000/svg" xmlns:xlink="http://www.w3.org/1999/xlink" width="24" height="24" viewBox="0 0 24 24"><defs><clipPath id="clip-path" transform="translate(0 0)"><rect width="24" height="24" fill="none"/></clipPath></defs><g id="Layer_2" data-name="Layer 2"><g id="Layer_2-2" data-name="Layer 2"><g id="instagram"><g clip-path="url(#clip-path)"><g clip-path="url(#clip-path)"><path d="M7.2,0h9.6A7.2,7.2,0,0,1,24,7.2v9.6A7.2,7.2,0,0,1,16.8,24H7.2A7.2,7.2,0,0,1,0,16.8V7.2A7.2,7.2,0,0,1,7.2,0m0,2.4A4.8,4.8,0,0,0,2.4,7.2v9.6a4.8,4.8,0,0,0,4.8,4.8h9.6a4.8,4.8,0,0,0,4.8-4.8V7.2a4.8,4.8,0,0,0-4.8-4.8ZM12,18a6,6,0,1,1,6-6,6,6,0,0,1-6,6m0-2.4A3.6,3.6,0,1,0,8.4,12,3.6,3.6,0,0,0,12,15.6m6-8.4A1.2,1.2,0,1,1,19.2,6,1.2,1.2,0,0,1,18,7.2" transform="translate(0 0)" fill-rule="evenodd"/></g></g></g></g></g></svg>