<svg xmlns="http://www.w3.org/2000/svg" width="48" height="48" viewBox="0 0 48 48"><g id="Layer_2" data-name="Layer 2"><g id="Layer_2-2" data-name="Layer 2"><rect width="48" height="48" fill="none"/><path d="M36,38.69a2.94,2.94,0,1,1,3-2.94A3,3,0,0,1,36,38.69Zm0-11.75A2.94,2.94,0,1,1,39,24,3,3,0,0,1,36,26.94Zm0-11.75a2.94,2.94,0,1,1,3-2.94A3,3,0,0,1,36,15.19ZM24,38.69a2.94,2.94,0,1,1,3-2.94A3,3,0,0,1,24,38.69Zm0-11.75A2.94,2.94,0,1,1,27,24,3,3,0,0,1,24,26.94Zm0-11.75a2.94,2.94,0,1,1,3-2.94A3,3,0,0,1,24,15.19ZM12,38.69a2.94,2.94,0,1,1,3-2.94A3,3,0,0,1,12,38.69Zm0-11.75A2.94,2.94,0,1,1,15,24,3,3,0,0,1,12,26.94Zm0-11.75a2.94,2.94,0,1,1,3-2.94A3,3,0,0,1,12,15.19Z" fill="#c8c8ff" fill-rule="evenodd"/></g></g></svg>