<svg xmlns="http://www.w3.org/2000/svg" width="48" height="48" viewBox="0 0 48 48"><g id="Layer_2" data-name="Layer 2"><g id="Layer_2-2" data-name="Layer 2"><rect width="48" height="48" fill="none"/><path d="M24,42.52A18.52,18.52,0,1,1,42.52,24,18.52,18.52,0,0,1,24,42.52Zm0-3.37A15.15,15.15,0,1,0,8.85,24,15.15,15.15,0,0,0,24,39.15Zm0-12.77-5.54,5.54-2.38-2.38L21.62,24l-5.54-5.54,2.38-2.38L24,21.62l5.54-5.54,2.38,2.38L26.38,24l5.54,5.54-2.38,2.38Z" fill="#c8c8ff" fill-rule="evenodd"/></g></g></svg>