<svg xmlns="http://www.w3.org/2000/svg" width="48" height="48" viewBox="0 0 48 48"><g id="Layer_2" data-name="Layer 2"><g id="Layer_2-2" data-name="Layer 2"><rect width="48" height="48" fill="none"/><path d="M29.69,24l8.53-8.53a2.69,2.69,0,0,0,0-3.79l-1.9-1.9a2.69,2.69,0,0,0-3.79,0L24,18.31,15.47,9.78a2.69,2.69,0,0,0-3.79,0l-1.9,1.9a2.69,2.69,0,0,0,0,3.79L18.31,24,9.78,32.53a2.69,2.69,0,0,0,0,3.79l1.9,1.9a2.69,2.69,0,0,0,3.79,0L24,29.69l8.53,8.53a2.69,2.69,0,0,0,3.79,0l1.9-1.9a2.69,2.69,0,0,0,0-3.79Z" fill="#c8c8ff"/></g></g></svg>