<svg id="Layer_1" data-name="Layer 1" xmlns="http://www.w3.org/2000/svg" width="310" height="310" viewBox="0 0 310 310"><path d="M155.5,16.5a139,139,0,0,1,98.29,237.29A139,139,0,0,1,57.21,57.21,138.12,138.12,0,0,1,155.5,16.5m0-11a150,150,0,1,0,150,150,150,150,0,0,0-150-150Z"/><path d="M34.34,226.8c-.69-2.31-1.2-4.68-1.68-7.05-.24-1.21-.47-2.42-.68-3.63a39.59,39.59,0,0,0-.65-4.23c.36,1.25,0,.1,0-.28s-.09-.7-.13-1.06c-.1-.84-.19-1.67-.27-2.51-.17-1.73-.3-3.46-.4-5.19a112.66,112.66,0,0,1-.07-11.33c.09-2,.24-4,.46-6,.05-.45.1-.91.16-1.36.1-.88,0-.16,0,0,0-.26.07-.53.11-.79.15-1,.33-2.1.52-3.15A72.06,72.06,0,0,1,35,168.11c.19-.52.38-1,.59-1.55.08-.19.16-.38.23-.57.27-.67-.26.58,0-.07.46-1,.91-2,1.41-3q.61-1.23,1.32-2.4a56.73,56.73,0,0,1,3.39-5,5.31,5.31,0,0,0,.55-.72c0,.09-.75,1-.06.08.4-.51.81-1,1.22-1.51.86-1,1.74-2,2.64-3A88.3,88.3,0,0,1,52.57,144q1.77-1.6,3.62-3.11l.86-.69.5-.39-.15.12c.69-.51,1.37-1,2.07-1.52A75.69,75.69,0,0,1,68.23,133c.76-.39,1.52-.77,2.29-1.14l1.09-.5.62-.28.42-.18.74-.3,1.3-.5c.87-.33,1.75-.63,2.64-.92q2.63-.84,5.31-1.43c.88-.19,1.76-.37,2.65-.52.42-.07.84-.12,1.26-.2.67-.11-.79.1-.11,0l.91-.11a54.39,54.39,0,0,1,11.76,0l.79.09c-.18,0-.9-.14,0,0,.45.07.91.14,1.36.23,1,.18,2,.41,3,.66a53.9,53.9,0,0,1,5.67,1.77l1.24.48.7.28.34.14.84.37,1.54.71q2.61,1.23,5.17,2.6c6.64,3.52,13.07,7.5,20.13,10.15a36.54,36.54,0,0,0,10.42,2.28,41.92,41.92,0,0,0,11.84-1.36c7.84-1.84,15.22-5.42,22.09-9.56s13.42-9,20.13-13.42c3.46-2.29,7-4.52,10.58-6.56,1.84-1,3.7-2,5.6-2.94.92-.45,1.85-.88,2.79-1.3l.57-.25c.11,0,.9-.39.42-.19s.31-.13.42-.17l1-.39a31.65,31.65,0,0,1,4.38-1.45c.63-.14,1.26-.25,1.89-.36.78-.14-1.13.12,0,0l1.21-.11a34.42,34.42,0,0,1,4.31,0c.71,0,1.42.11,2.12.18s-1-.17.08,0L241,109a30.75,30.75,0,0,1,4.18,1.13l.89.34c.71.26-.92-.43.17.07.63.3,1.25.62,1.86,1,.35.21,1.29.61,1.48,1-.15-.3-.73-.61-.32-.24l.38.32c.27.24.54.49.79.75s.38.43.57.63c.49.5-.57-.92,0,0,.21.34.62,1.47.93,1.65-.29-.17-.37-1-.06-.08a7.71,7.71,0,0,1,.24.82c.06.23.06.79.2,1-.06-.08-.08-1.18-.08-.44,0,.21,0,.43,0,.64s0,.63,0,.94,0,.37,0,.55c0,.62-.18-.15,0-.35a4.35,4.35,0,0,0-.22,1.13q-.18.8-.42,1.56c-.06.17-.47,1.33-.23.69s-.2.4-.29.56c-.18.34-.39.65-.58,1s0,.38.22-.26a1.64,1.64,0,0,1-.34.4l-.72.72a5,5,0,0,0-.38.33c0-.09.95-.62.31-.26a8.78,8.78,0,0,0-1.73,1c.07-.24,1-.39,0,0l-.86.28c-.68.19-1.38.35-2.07.48s-1.47.25-2.21.36,1.06-.13-.09,0l-1.32.17a48.64,48.64,0,0,0-10.42,2.1A30.56,30.56,0,0,0,213,145.76a25.88,25.88,0,0,0-1,15.47,14.54,14.54,0,0,0,.65,2.16c.92,2.22,3,3.91,5.54,3.15L243.77,159l40.44-12,9.33-2.76a4.5,4.5,0,0,0-2.39-8.68l-25.56,7.57-40.43,12-9.33,2.77,5.53,3.14a14.81,14.81,0,0,1-.71-2.44c-.08-.36-.15-.73-.21-1.09l-.06-.35c-.12-.64.09.7.09.66,0-.28-.07-.57-.09-.86a22.16,22.16,0,0,1,0-3.36c0-.31.06-.63.08-.95.05-.64-.2,1.13,0,0,.13-.69.27-1.37.46-2.05s.48-1.31.66-2-.38.81-.12.27c.09-.18.16-.36.25-.54.19-.41.4-.82.62-1.22.4-.71.84-1.38,1.29-2,.63-.92-.29.31.23-.32.34-.41.69-.82,1.05-1.21a25.78,25.78,0,0,1,2.06-2c.12-.11,1.34-1.11.68-.6.52-.4,1-.78,1.6-1.14a24.19,24.19,0,0,1,2.4-1.44c.4-.21.82-.4,1.23-.59-.9.42.13,0,.48-.17a31.71,31.71,0,0,1,5-1.3c.77-.14,1.53-.26,2.3-.37,1.16-.18-.84.1.31,0l1.32-.17c1.76-.22,3.52-.43,5.26-.77a17.56,17.56,0,0,0,8.74-4.2c3-2.86,4.43-7,4.92-11.06,1.79-14.75-15.61-20.67-27.41-20-7.72.43-14.81,3.81-21.53,7.44-7.44,4-14.37,8.89-21.34,13.66-6.62,4.53-13.33,9-20.64,12.38l-1.2.53c-.78.35-.11.06,0,0l-.69.29c-.93.37-1.86.73-2.81,1.06a55.8,55.8,0,0,1-5.8,1.7c-.93.22-1.87.41-2.81.58l-1.53.25c-.69.12.74-.08,0,0l-1,.12a25.38,25.38,0,0,1-4.93,0l-.62-.07c-.63-.05.88.16.26,0-.35-.07-.72-.11-1.07-.18-.88-.17-1.75-.38-2.61-.62-1.62-.46-3.18-1.06-4.74-1.66,1.07.41-.18-.08-.45-.21l-1.23-.56q-1.23-.58-2.46-1.2c-1.67-.85-3.32-1.75-5-2.65-7.07-3.89-14.13-7.9-21.85-10.38-15.67-5-32.75-2.13-47,5.58A89,89,0,0,0,34,151.2c-8.54,11.55-11.9,26.17-12.55,40.32a123.16,123.16,0,0,0,3.73,35.81c.16.62.32,1.25.5,1.87a4.5,4.5,0,0,0,8.68-2.4Z"/></svg>