<svg xmlns="http://www.w3.org/2000/svg" xmlns:xlink="http://www.w3.org/1999/xlink" width="24" height="24" viewBox="0 0 24 24"><defs><clipPath id="clip-path" transform="translate(0 0)"><rect width="24" height="24" fill="none"/></clipPath><clipPath id="clip-path-2" transform="translate(0 0)"><rect width="24" height="24" fill="none"/></clipPath></defs><g id="Layer_2" data-name="Layer 2"><g id="Layer_2-2" data-name="Layer 2"><g id="twitter"><g clip-path="url(#clip-path)"><g clip-path="url(#clip-path-2)"><path d="M22.35,3.17,24,3.38,23.26,5,22.17,7.34a1.88,1.88,0,0,1-.23.51c-.05.07-.21.33-.21.34l-.1.16v3C21.63,19.09,14.71,24,8.18,24a14.66,14.66,0,0,1-3.52-.34,5.26,5.26,0,0,1-4-2.92L0,19.13,1.63,19a13.41,13.41,0,0,0,3.74-.86c-2.7-.47-4.21-1.75-4.21-4.15V12.7h1.2a3.68,3.68,0,0,0,.7-.07c-2-1.31-3-3.4-3-6.31V6.06A8.19,8.19,0,0,1,.46,2.81,5.89,5.89,0,0,1,1.5,1l.88-1,.86,1.06C6.06,4.55,8.85,6.67,11.7,6.92A5.37,5.37,0,0,1,17,1.26a5,5,0,0,1,3.65,1.61q.83.18,1.74.3m-2.52,2.1-.36-.09-.25-.3a2.79,2.79,0,0,0-2.78-1.07,3.21,3.21,0,0,0-2.38,3.26,5.48,5.48,0,0,1,0,.72c-.14,1-.66,1.85-1.72,1.85C8.77,9.64,5.59,7.54,2.49,4A7,7,0,0,0,2.3,6.09v.29s.94,4,3.18,4.79l.23.28v.93c.56,1.12-.4,2.17-1.8,2.64A21.43,21.43,0,0,0,8,16.49H9.12v1.26c0,1.81-2,3.23-5,4a13,13,0,0,0,3.78.45c5.55,0,11.43-4.06,11.43-10.11V8.33a2.41,2.41,0,0,1,.27-1.06c.07-.14.14-.27.23-.42L20,6.64l.1-.2.45-1-.69-.16" transform="translate(0 0)" fill-rule="evenodd"/></g></g></g></g></g></svg>